<svg width="60" height="60" fill="none" xmlns="http://www.w3.org/2000/svg"><path fill-rule="evenodd" clip-rule="evenodd" d="M30 60C13.431 60 0 46.569 0 30 0 13.431 13.431 0 30 0c16.569 0 30 13.431 30 30 0 16.569-13.431 30-30 30z" fill="#F4F7FC"/><mask id="a" maskUnits="userSpaceOnUse" x="0" y="0" width="60" height="60"><path fill-rule="evenodd" clip-rule="evenodd" d="M30 60C13.431 60 0 46.569 0 30 0 13.431 13.431 0 30 0c16.569 0 30 13.431 30 30 0 16.569-13.431 30-30 30z" fill="#fff"/></mask><g mask="url(#a)"><path d="M61.025 13H19.931a1.871 1.871 0 00-1.869 1.878v6.412h44.84v-6.412A1.879 1.879 0 0061.026 13z" fill="#80A8E4"/><g filter="url(#filter0_d)"><path d="M18.089 22.654v24.16c0 1.036.84 1.878 1.877 1.878H61.06a1.879 1.879 0 001.878-1.878v-24.16h-44.85z" fill="#fff"/></g><path d="M62.93 21.29H18.088v1.364h44.84V21.29z" fill="#CDD5DF"/><path d="M21.773 18.208a1.063 1.063 0 100-2.126 1.063 1.063 0 000 2.126z" fill="#E4002B"/><path d="M25.617 18.208a1.063 1.063 0 100-2.126 1.063 1.063 0 000 2.126z" fill="#FFD05C"/><path d="M29.451 18.208a1.063 1.063 0 100-2.126 1.063 1.063 0 000 2.126z" fill="#1EAC9F"/><path d="M57.952 16.082H35.013c-.584 0-1.062.478-1.062 1.063 0 .584.478 1.063 1.062 1.063h22.939c.584 0 1.063-.479 1.063-1.063 0-.585-.479-1.063-1.063-1.063z" fill="#697684"/></g><path d="M16.322 35.627a8.728 8.728 0 00-8.733 8.732 8.727 8.727 0 008.733 8.733 8.727 8.727 0 008.732-8.733c-.009-4.826-3.914-8.732-8.732-8.732zm0 14.4a5.673 5.673 0 01-5.669-5.668 5.673 5.673 0 015.669-5.668 5.673 5.673 0 015.668 5.668 5.673 5.673 0 01-5.668 5.669z" fill="#E1E5EB"/><path d="M29.048 41.853a12.804 12.804 0 00-1.957-4.72l1.568-2.542-2.578-2.578-2.541 1.568a12.804 12.804 0 00-4.72-1.957l-.692-2.905h-3.64l-.69 2.905a12.804 12.804 0 00-4.721 1.957l-2.542-1.568-2.577 2.578 1.567 2.541a12.806 12.806 0 00-1.957 4.721l-2.905.69v3.632l2.905.69a12.806 12.806 0 001.958 4.721l-1.568 2.542 2.577 2.577 2.542-1.567c1.4.939 3.002 1.62 4.72 1.957L14.489 60h3.64l.691-2.905a12.808 12.808 0 004.72-1.957l2.542 1.567 2.578-2.577-1.568-2.542a12.957 12.957 0 001.957-4.72l2.905-.691v-3.631l-2.905-.691zM16.322 53.092a8.727 8.727 0 01-8.733-8.733 8.728 8.728 0 018.733-8.732 8.728 8.728 0 018.732 8.732c-.009 4.827-3.914 8.733-8.732 8.733z" fill="#D2D5DA"/><defs><filter id="filter0_d" x="17.089" y="22.654" width="46.849" height="28.038" filterUnits="userSpaceOnUse" color-interpolation-filters="sRGB"><feFlood flood-opacity="0" result="BackgroundImageFix"/><feColorMatrix in="SourceAlpha" values="0 0 0 0 0 0 0 0 0 0 0 0 0 0 0 0 0 0 127 0"/><feOffset dy="1"/><feGaussianBlur stdDeviation=".5"/><feColorMatrix values="0 0 0 0 0 0 0 0 0 0 0 0 0 0 0 0 0 0 0.08 0"/><feBlend in2="BackgroundImageFix" result="effect1_dropShadow"/><feBlend in="SourceGraphic" in2="effect1_dropShadow" result="shape"/></filter></defs></svg>
