<svg width="60" height="60" fill="none" xmlns="http://www.w3.org/2000/svg"><path fill-rule="evenodd" clip-rule="evenodd" d="M30 60C13.431 60 0 46.569 0 30 0 13.431 13.431 0 30 0c16.569 0 30 13.431 30 30 0 16.569-13.431 30-30 30z" fill="#F4F7FC"/><mask id="a" maskUnits="userSpaceOnUse" x="0" y="0" width="60" height="60"><path fill-rule="evenodd" clip-rule="evenodd" d="M30 60C13.431 60 0 46.569 0 30 0 13.431 13.431 0 30 0c16.569 0 30 13.431 30 30 0 16.569-13.431 30-30 30z" fill="#fff"/></mask><g mask="url(#a)"><path fill="#D2D5DA" d="M-9.836 31.023h46.555v21.783H-9.836z"/><path fill="#fff" d="M18.353 33.586h11.959v7.688H18.353z"/><path fill="#D2D5DA" d="M19.207 34.44h9.396v5.98h-9.396z"/><path fill="#fff" d="M18.78 37.003h11.532v.854H18.78z"/><path fill="#fff" d="M18.353 34.013h3.844v6.834h-3.844z"/><path fill="#C6C6C6" d="M19.207 34.44h2.136v.427h-2.136zm0 1.281h2.136v.427h-2.136zm0 1.282h2.136v.427h-2.136zm0 1.281h2.136v.427h-2.136zm0 1.282h2.136v.427h-2.136z"/><path fill="#fff" d="M26.468 34.013h3.844v6.834h-3.844z"/><path fill="#C6C6C6" d="M27.323 34.44h2.136v.427h-2.136zm0 1.281h2.136v.427h-2.136zm0 1.282h2.136v.427h-2.136zm0 1.281h2.136v.427h-2.136zm0 1.282h2.136v.427h-2.136z"/><path fill="#fff" d="M-3.857 33.586h13.24v11.959h-13.24z"/><path fill="#fff" d="M-.013 33.586h5.552v11.959H-.013z"/><path fill="#D2D5DA" d="M.842 34.44H2.55v1.708H.842zm2.135 0h1.708v1.708H2.977zM.842 36.576H2.55v1.708H.842zm2.135 0h1.708v1.708H2.977zM.842 38.711H2.55v1.708H.842zm2.135 0h1.708v1.708H2.977zM.842 40.847H2.55v1.708H.842zm2.135 0h1.708v1.708H2.977zM.842 42.982H2.55v1.708H.842zm2.135 0h1.708v1.708H2.977zm3.844-8.542h1.708v1.708H6.821zm0 2.136h1.708v1.708H6.821zm0 2.135h1.708v1.708H6.821zm0 2.136h1.708v1.708H6.821zm0 2.135h1.708v1.708H6.821z"/><path fill="#fff" d="M15.364 43.41H33.73v1.281H15.364zm0 5.125H33.73v1.281H15.364z"/><path fill="#fff" d="M15.364 44.264h1.281v4.271h-1.281zm2.135.427h1.281v4.271h-1.281zm2.136-.427h1.281v4.271h-1.281zm2.135 0h1.281v4.271H21.77zm2.136 0h1.281v4.271h-1.281zm2.135 0h1.281v4.271h-1.281zm2.136 0h1.281v4.271h-1.281zm2.135 0h1.281v4.271h-1.281zm2.136 0h1.281v4.271h-1.281z"/><path fill="#EDEDED" d="M-6.419 49.816h40.148v2.99H-6.419z"/><path fill-rule="evenodd" clip-rule="evenodd" d="M13.655 12.658l23.491 16.23H-9.836l23.491-16.23z" fill="#697684"/><path fill="#EDEDED" d="M-9.836 28.888h46.982v2.136H-9.836z"/></g><path fill-rule="evenodd" clip-rule="evenodd" d="M43.642 33.782s-.239-2.22-2.01-3.969c-2.011-1.984-2.845-1.239-4.022-1.984-.574-.364 1.351-1.334 2.01-1.985 2.012-1.984 4.022 0 4.022 0s2.011 1.985 4.022 0c2.01-1.984 4.022 0 4.022 0s4.021 1.985 2.01 1.985c-2.01 0-3.736 1.135-5.027 1.984-1.29.849-1.005 1.984-1.005 1.984v1.985h-4.022zm1.325 23.812c7.218 0 15.081-1.985 13.07-10.914-2.01-8.93-5.852-12.898-13.07-12.898s-10.823 5.65-11.8 13.296c-.979 7.647 4.582 10.516 11.8 10.516z" fill="#E9CCB4"/><path fill-rule="evenodd" clip-rule="evenodd" d="M48.104 48.822c-.468.464-1.091.754-1.868.871v1.38h-1.28v-1.355a5.628 5.628 0 01-1.548-.326 4.191 4.191 0 01-1.235-.702l.54-1.166c.426.318.858.552 1.297.702.439.15.913.226 1.423.226.569 0 1.005-.109 1.31-.326.306-.217.458-.53.458-.94a.756.756 0 00-.25-.59 1.835 1.835 0 00-.621-.357 13.13 13.13 0 00-1.047-.307c-.636-.159-1.15-.32-1.543-.483a2.626 2.626 0 01-1.015-.752c-.284-.339-.427-.792-.427-1.36 0-.67.245-1.242.734-1.719.489-.476 1.122-.773 1.9-.89V39.35h1.279v1.367c.476.058.93.175 1.36.35.43.176.788.394 1.072.653l-.54 1.166c-.776-.61-1.608-.915-2.494-.915-.519 0-.93.112-1.235.338-.306.226-.458.54-.458.94 0 .276.088.5.263.671.176.172.4.308.671.408.272.1.637.205 1.097.313.61.15 1.106.303 1.486.458.38.155.704.395.972.72.267.327.401.762.401 1.305a2.3 2.3 0 01-.702 1.699z" fill="#1EAC9F"/><rect x="40.626" y="32.789" width="9.049" height="1.984" rx=".992" fill="#1EAC9F"/><rect x="41.531" y="30.805" width="7.239" height="1.984" rx=".992" fill="#1EAC9F"/></svg>
