<svg width="61" height="60" fill="none" xmlns="http://www.w3.org/2000/svg"><path fill-rule="evenodd" clip-rule="evenodd" d="M30 60C13.431 60 0 46.569 0 30 0 13.431 13.431 0 30 0c16.569 0 30 13.431 30 30 0 16.569-13.431 30-30 30z" fill="#F4F7FC"/><g filter="url(#filter0_d)"><path d="M15 18a4 4 0 00-4 4v28.476C11 51.87 11.92 53 13.051 53H57.95c1.13 0 2.05-1.131 2.05-2.524V22a4 4 0 00-4-4H15z" fill="#fff"/></g><circle cx="25" cy="36" r="8" fill="#697684"/><circle cx="25" cy="35" r="3" fill="#fff"/><path d="M30 42s-2.239 1.5-5 1.5-5-1.5-5-1.5c0-2.761 2.239-4 5-4s5 1.239 5 4z" fill="#fff"/><path fill-rule="evenodd" clip-rule="evenodd" d="M24.994 28C20.58 28 17 31.587 17 36s3.58 8 7.994 8c4.315-.02 8.009-3.34 8.006-8 0-4.414-3.592-8-8.006-8zm0 .988A7.008 7.008 0 0132.012 36a6.97 6.97 0 01-1.675 4.547 6.146 6.146 0 00-3.366-2.817 3.326 3.326 0 001.359-2.675 3.34 3.34 0 00-3.336-3.33 3.337 3.337 0 00-3.33 3.33 3.33 3.33 0 001.36 2.675 6.12 6.12 0 00-3.361 2.817A6.983 6.983 0 0117.988 36a6.997 6.997 0 017.006-7.012zm0 3.726a2.334 2.334 0 012.347 2.34 2.334 2.334 0 01-2.347 2.342 2.335 2.335 0 01-2.341-2.341 2.335 2.335 0 012.34-2.341zm4.614 8.568a7 7 0 01-4.614 1.73 6.977 6.977 0 01-4.602-1.73c2.192-4.04 7.304-3.63 9.216 0z" fill="#697684"/><path stroke="#CDD5DF" stroke-linecap="round" stroke-linejoin="round" d="M36.5 31.5h16m-16 4h16"/><circle cx="37.5" cy="40.5" r="1.5" fill="#D2D5DA"/><circle cx="51.5" cy="40.5" r="1.5" fill="#D2D5DA"/><circle cx="44.5" cy="40.5" r="1.5" fill="#D2D5DA"/><path d="M11 22a4 4 0 014-4h41a4 4 0 014 4H11z" fill="#80A8E4"/><defs><filter id="filter0_d" x="10" y="18" width="51" height="37" filterUnits="userSpaceOnUse" color-interpolation-filters="sRGB"><feFlood flood-opacity="0" result="BackgroundImageFix"/><feColorMatrix in="SourceAlpha" values="0 0 0 0 0 0 0 0 0 0 0 0 0 0 0 0 0 0 127 0"/><feOffset dy="1"/><feGaussianBlur stdDeviation=".5"/><feColorMatrix values="0 0 0 0 0 0 0 0 0 0 0 0 0 0 0 0 0 0 0.19 0"/><feBlend in2="BackgroundImageFix" result="effect1_dropShadow"/><feBlend in="SourceGraphic" in2="effect1_dropShadow" result="shape"/></filter></defs></svg>
