<svg width="60" height="60" fill="none" xmlns="http://www.w3.org/2000/svg"><path fill-rule="evenodd" clip-rule="evenodd" d="M30 60C13.431 60 0 46.569 0 30 0 13.431 13.431 0 30 0c16.569 0 30 13.431 30 30 0 16.569-13.431 30-30 30z" fill="#F4F7FC"/><mask id="a" maskUnits="userSpaceOnUse" x="0" y="0" width="60" height="60"><path fill-rule="evenodd" clip-rule="evenodd" d="M30 60C13.431 60 0 46.569 0 30 0 13.431 13.431 0 30 0c16.569 0 30 13.431 30 30 0 16.569-13.431 30-30 30z" fill="#fff"/></mask><g mask="url(#a)"><mask id="b" maskUnits="userSpaceOnUse" x="11" y="4" width="45" height="38"><path fill-rule="evenodd" clip-rule="evenodd" d="M18.102 5l37.17 7.9-6.145 28.91-37.17-7.9L18.102 5z" fill="#fff"/></mask><g mask="url(#b)" fill-rule="evenodd" clip-rule="evenodd"><path d="M18.102 5l38.546 8.193-6.437 30.286-38.546-8.193L18.102 5z" fill="#E9EBED"/><path d="M52.372 44.502L8.797 35.24l2.783-9.284s4.365 5.153 10.769 6.794c6.403 1.64 15.7 3.281 15.7 3.281s7.19-1.5 12.618-1.468c5.429.032 1.705 9.94 1.705 9.94z" fill="#A5ADB5"/></g><mask id="c" maskUnits="userSpaceOnUse" x="8" y="33" width="42" height="24"><path fill-rule="evenodd" clip-rule="evenodd" d="M11.957 33.91l37.17 7.9-3.22 15.143-37.169-7.9 3.22-15.144z" fill="#fff"/></mask><g mask="url(#c)"><path fill-rule="evenodd" clip-rule="evenodd" d="M11.957 33.91l38.546 8.193-3.511 16.52-38.546-8.194 3.511-16.52z" fill="#fff"/></g><mask id="d" maskUnits="userSpaceOnUse" x="13" y="38" width="30" height="9"><path fill-rule="evenodd" clip-rule="evenodd" d="M13.529 38.79l29.368 6.243-.312 1.468-29.368-6.242.312-1.469z" fill="#fff"/></mask><g mask="url(#d)"><path fill-rule="evenodd" clip-rule="evenodd" d="M12.95 37.9l30.838 6.555-.625 2.936-30.837-6.554.625-2.937z" fill="#F7F8F9"/></g><mask id="e" maskUnits="userSpaceOnUse" x="12" y="42" width="23" height="7"><path fill-rule="evenodd" clip-rule="evenodd" d="M12.826 42.094l22.027 4.682-.312 1.468-22.027-4.681.313-1.469z" fill="#fff"/></mask><g mask="url(#e)"><path fill-rule="evenodd" clip-rule="evenodd" d="M12.248 41.204l23.495 4.994-.624 2.937-23.495-4.994.624-2.937z" fill="#F7F8F9"/></g><mask id="f" maskUnits="userSpaceOnUse" x="11" y="44" width="24" height="8"><path fill-rule="evenodd" clip-rule="evenodd" d="M12.218 44.958l22.026 4.681-.312 1.469-22.026-4.682.312-1.468z" fill="#fff"/></mask><g mask="url(#f)"><path fill-rule="evenodd" clip-rule="evenodd" d="M11.64 44.067l23.495 4.994-.625 2.937-23.494-4.994.624-2.937z" fill="#F7F8F9"/></g><mask id="g" maskUnits="userSpaceOnUse" x="26" y="11" width="24" height="30"><path fill-rule="evenodd" clip-rule="evenodd" d="M32.262 11.192L49.38 14.83l-5.465 25.71-17.117-3.64 5.464-25.708z" fill="#fff"/></mask><g mask="url(#g)"><path fill-rule="evenodd" clip-rule="evenodd" d="M24.747 38.935l20.215 4.296 6.296-29.62-20.215-4.297-6.296 29.62z" fill="#D2D5DA"/></g><mask id="h" maskUnits="userSpaceOnUse" x="27" y="14" width="6" height="24"><path fill-rule="evenodd" clip-rule="evenodd" d="M32.11 14.46l.519.11-4.794 22.551-.519-.11 4.794-22.552z" fill="#fff"/></mask><g mask="url(#h)"><path fill-rule="evenodd" clip-rule="evenodd" d="M25.265 39.045l3.616.768 5.625-26.463-3.616-.768-5.625 26.463z" fill="#F6F6F6"/></g><mask id="i" maskUnits="userSpaceOnUse" x="31" y="15" width="2" height="2"><path fill-rule="evenodd" clip-rule="evenodd" d="M31.976 15.09l.518.111-.268 1.263-.519-.11.269-1.263z" fill="#fff"/></mask><g mask="url(#i)"><path fill-rule="evenodd" clip-rule="evenodd" d="M29.83 17.573l3.615.77.927-4.361-3.616-.769-.927 4.36z" fill="#ECECEC"/></g><mask id="j" maskUnits="userSpaceOnUse" x="42" y="17" width="7" height="24"><path fill-rule="evenodd" clip-rule="evenodd" d="M47.57 17.746l.52.11-4.794 22.551-.519-.11 4.794-22.551z" fill="#fff"/></mask><g mask="url(#j)"><path fill-rule="evenodd" clip-rule="evenodd" d="M40.726 42.331l3.616.769 5.625-26.464-3.616-.768-5.625 26.463z" fill="#EFEFEF"/></g><mask id="k" maskUnits="userSpaceOnUse" x="47" y="18" width="1" height="2"><path fill-rule="evenodd" clip-rule="evenodd" d="M47.436 18.377l.52.11-.27 1.264-.518-.11.268-1.264z" fill="#fff"/></mask><g mask="url(#k)"><path fill-rule="evenodd" clip-rule="evenodd" d="M45.29 20.86l3.616.768.927-4.36-3.616-.769-.927 4.36z" fill="#E8E8E8"/></g><mask id="l" maskUnits="userSpaceOnUse" x="29" y="27" width="1" height="2"><path fill-rule="evenodd" clip-rule="evenodd" d="M29.358 27.405l.519.11-.269 1.264-.518-.11.268-1.264z" fill="#fff"/></mask><g mask="url(#l)"><path fill-rule="evenodd" clip-rule="evenodd" d="M27.212 29.888l3.616.769.927-4.36-3.616-.77-.927 4.361z" fill="#ECECEC"/></g><mask id="m" maskUnits="userSpaceOnUse" x="27" y="36" width="1" height="2"><path fill-rule="evenodd" clip-rule="evenodd" d="M27.412 36.562l.518.11-.095.45-.519-.111.096-.449z" fill="#fff"/></mask><g mask="url(#m)"><path fill-rule="evenodd" clip-rule="evenodd" d="M25.265 39.045l3.616.768.927-4.36-3.616-.769-.927 4.36z" fill="#ECECEC"/></g><mask id="n" maskUnits="userSpaceOnUse" x="44" y="30" width="2" height="3"><path fill-rule="evenodd" clip-rule="evenodd" d="M44.819 30.692l.519.11-.269 1.263-.519-.11.269-1.263z" fill="#fff"/></mask><g mask="url(#n)"><path fill-rule="evenodd" clip-rule="evenodd" d="M42.672 33.174l3.617.769.926-4.36-3.616-.77-.926 4.361z" fill="#E8E8E8"/></g><mask id="o" maskUnits="userSpaceOnUse" x="42" y="39" width="2" height="2"><path fill-rule="evenodd" clip-rule="evenodd" d="M42.873 39.849l.518.11-.095.448-.519-.11.096-.448z" fill="#fff"/></mask><g mask="url(#o)"><path fill-rule="evenodd" clip-rule="evenodd" d="M40.726 42.331l3.616.769.927-4.36-3.616-.77-.927 4.361z" fill="#E8E8E8"/></g><mask id="p" maskUnits="userSpaceOnUse" x="28" y="36" width="2" height="2"><path fill-rule="evenodd" clip-rule="evenodd" d="M28.45 36.783l1.037.22-.096.449-1.037-.22.095-.45z" fill="#fff"/></mask><g mask="url(#p)"><path fill-rule="evenodd" clip-rule="evenodd" d="M26.303 39.265l4.135.88.927-4.361-4.135-.88-.927 4.361z" fill="#F3F3F3"/></g><mask id="q" maskUnits="userSpaceOnUse" x="29" y="37" width="3" height="1"><path fill-rule="evenodd" clip-rule="evenodd" d="M30.005 37.114l1.038.22-.096.449-1.037-.22.095-.45z" fill="#fff"/></mask><g mask="url(#q)"><path fill-rule="evenodd" clip-rule="evenodd" d="M27.859 39.596l4.135.879.927-4.36-4.135-.88-.927 4.361z" fill="#F3F3F3"/></g><mask id="r" maskUnits="userSpaceOnUse" x="31" y="37" width="2" height="2"><path fill-rule="evenodd" clip-rule="evenodd" d="M31.561 37.444l1.038.22-.095.45-1.038-.221.095-.449z" fill="#fff"/></mask><g mask="url(#r)"><path fill-rule="evenodd" clip-rule="evenodd" d="M29.415 39.927l4.135.879.927-4.36-4.135-.88-.927 4.36z" fill="#F3F3F3"/></g><mask id="s" maskUnits="userSpaceOnUse" x="38" y="38" width="2" height="2"><path fill-rule="evenodd" clip-rule="evenodd" d="M38.305 38.878l1.037.22-.095.449-1.038-.22.096-.45z" fill="#fff"/></mask><g mask="url(#s)"><path fill-rule="evenodd" clip-rule="evenodd" d="M36.158 41.36l4.135.88.927-4.361-4.135-.88-.927 4.361z" fill="#F3F3F3"/></g><mask id="t" maskUnits="userSpaceOnUse" x="39" y="39" width="2" height="1"><path fill-rule="evenodd" clip-rule="evenodd" d="M39.861 39.208l1.037.22-.095.45-1.037-.221.095-.449z" fill="#fff"/></mask><g mask="url(#t)"><path fill-rule="evenodd" clip-rule="evenodd" d="M37.715 41.691l4.134.879.927-4.36-4.135-.88-.926 4.361z" fill="#F3F3F3"/></g><mask id="u" maskUnits="userSpaceOnUse" x="41" y="39" width="2" height="2"><path fill-rule="evenodd" clip-rule="evenodd" d="M41.417 39.54l1.038.22-.096.448-1.037-.22.095-.449z" fill="#fff"/></mask><g mask="url(#u)"><path fill-rule="evenodd" clip-rule="evenodd" d="M39.27 42.022l4.136.879.927-4.36-4.135-.88-.927 4.36z" fill="#F3F3F3"/></g><mask id="v" maskUnits="userSpaceOnUse" x="32" y="15" width="2" height="2"><path fill-rule="evenodd" clip-rule="evenodd" d="M32.879 15.943l1.037.22-.134.632-1.037-.22.134-.632z" fill="#fff"/></mask><g mask="url(#v)"><path fill-rule="evenodd" clip-rule="evenodd" d="M30.867 17.794l4.134.879.793-3.73-4.135-.878-.792 3.729z" fill="#F3F3F3"/></g><mask id="w" maskUnits="userSpaceOnUse" x="34" y="16" width="2" height="2"><path fill-rule="evenodd" clip-rule="evenodd" d="M34.175 16.219l1.038.22-.134.632-1.038-.22.135-.632z" fill="#fff"/></mask><g mask="url(#w)"><path fill-rule="evenodd" clip-rule="evenodd" d="M32.163 18.07l4.135.878.793-3.729-4.135-.878-.793 3.729z" fill="#F3F3F3"/></g><mask id="x" maskUnits="userSpaceOnUse" x="33" y="17" width="2" height="1"><path fill-rule="evenodd" clip-rule="evenodd" d="M33.196 17l1.038.221-.135.631-1.037-.22.134-.632z" fill="#fff"/></mask><g mask="url(#x)"><path fill-rule="evenodd" clip-rule="evenodd" d="M31.184 18.852l4.135.878.792-3.729-4.134-.878-.793 3.729z" fill="#F3F3F3"/></g><mask id="y" maskUnits="userSpaceOnUse" x="29" y="29" width="3" height="2"><path fill-rule="evenodd" clip-rule="evenodd" d="M29.993 29.52l1.037.22-.134.632-1.037-.22.134-.632z" fill="#fff"/></mask><g mask="url(#y)"><path fill-rule="evenodd" clip-rule="evenodd" d="M27.98 31.371l4.135.88.793-3.73-4.135-.879-.792 3.73z" fill="#F3F3F3"/></g><mask id="z" maskUnits="userSpaceOnUse" x="31" y="29" width="2" height="2"><path fill-rule="evenodd" clip-rule="evenodd" d="M31.29 29.796l1.037.22-.134.632-1.038-.22.135-.632z" fill="#fff"/></mask><g mask="url(#z)"><path fill-rule="evenodd" clip-rule="evenodd" d="M29.277 31.647l4.135.879.793-3.729-4.135-.879-.793 3.73z" fill="#F3F3F3"/></g><mask id="A" maskUnits="userSpaceOnUse" x="29" y="27" width="16" height="5"><path fill-rule="evenodd" clip-rule="evenodd" d="M29.877 27.516l15.043 3.197-.269 1.263-15.043-3.197.269-1.263z" fill="#fff"/></mask><g mask="url(#A)"><path fill-rule="evenodd" clip-rule="evenodd" d="M27.73 29.998l18.14 3.856.928-4.36-18.14-3.856-.928 4.36z" fill="#697584"/></g><mask id="B" maskUnits="userSpaceOnUse" x="29" y="28" width="16" height="4"><path fill-rule="evenodd" clip-rule="evenodd" d="M29.675 28.463l15.043 3.197-.067.316-15.043-3.197.067-.316z" fill="#fff"/></mask><g mask="url(#B)"><path fill-rule="evenodd" clip-rule="evenodd" d="M27.73 29.998l18.14 3.856.726-3.413-18.14-3.856-.726 3.413z" fill="#ECECEC"/></g><mask id="C" maskUnits="userSpaceOnUse" x="36" y="37" width="1" height="1"><path fill-rule="evenodd" clip-rule="evenodd" d="M36.498 37.174l.26.055-.135.631-.259-.055.134-.631z" fill="#fff"/></mask><g mask="url(#C)"><path fill-rule="evenodd" clip-rule="evenodd" d="M34.486 39.025l3.357.713.793-3.729-3.357-.713-.793 3.729z" fill="#fff"/></g><mask id="D" maskUnits="userSpaceOnUse" x="30" y="11" width="20" height="8"><path fill-rule="evenodd" clip-rule="evenodd" d="M42.47 16.662c.173-1.449-.582-2.764-1.783-3.02-1.202-.255-2.426.64-2.857 2.033l-7.276-1.546 1.68-2.943 17.173 3.65.34 3.372-7.277-1.546z" fill="#fff"/></mask><g mask="url(#D)"><path fill-rule="evenodd" clip-rule="evenodd" d="M28.676 15.348l22.29 4.738 1.33-6.255-22.29-4.738-1.33 6.255z" fill="#697584"/></g><mask id="E" maskUnits="userSpaceOnUse" x="30" y="14" width="8" height="3"><path fill-rule="evenodd" clip-rule="evenodd" d="M30.554 14.129l7.262 1.543-.135.632-7.262-1.544.135-.631z" fill="#fff"/></mask><g mask="url(#E)"><path fill-rule="evenodd" clip-rule="evenodd" d="M28.541 15.98l10.36 2.202.793-3.73-10.36-2.201-.793 3.729z" fill="#D9D9D9"/></g><mask id="F" maskUnits="userSpaceOnUse" x="42" y="16" width="8" height="3"><path fill-rule="evenodd" clip-rule="evenodd" d="M42.484 16.665l7.262 1.543-.134.632-7.262-1.544.134-.631z" fill="#fff"/></mask><g mask="url(#F)"><path fill-rule="evenodd" clip-rule="evenodd" d="M40.472 18.516l10.36 2.202.792-3.73-10.36-2.201-.792 3.729z" fill="#D9D9D9"/></g><mask id="G" maskUnits="userSpaceOnUse" x="37" y="13" width="6" height="5"><path fill-rule="evenodd" clip-rule="evenodd" d="M42.35 17.296l-4.669-.992c.334-1.57 1.65-2.62 2.939-2.346" fill="#fff"/></mask><g mask="url(#G)"><path d="M42.35 17.296c.334-1.57-.441-3.064-1.73-3.338-1.29-.274-2.605.776-2.938 2.346" stroke="#D9D9D9" stroke-width="1.267"/></g><mask id="H" maskUnits="userSpaceOnUse" x="37" y="13" width="6" height="5"><path fill-rule="evenodd" clip-rule="evenodd" d="M42.35 17.296l-4.669-.992c.371-1.744 1.717-2.936 3.006-2.662" fill="#fff"/></mask><g mask="url(#H)"><path d="M42.35 17.296c.37-1.744-.374-3.38-1.663-3.654-1.29-.274-2.635.918-3.005 2.662" stroke="#FAFAFA" stroke-width="1.267"/></g><mask id="I" maskUnits="userSpaceOnUse" x="39" y="15" width="3" height="3"><path fill-rule="evenodd" clip-rule="evenodd" d="M39.814 17.747c-.573-.122-.917-.786-.769-1.483.149-.698.733-1.165 1.306-1.043.573.122.918.786.77 1.484-.149.697-.734 1.164-1.307 1.042z" fill="#fff"/></mask><g mask="url(#I)"><path fill-rule="evenodd" clip-rule="evenodd" d="M36.899 18.746l5.172 1.1 1.196-5.624-5.173-1.1-1.195 5.624z" fill="#E5E5E5"/></g><path d="M40.385 15.063l-.608 2.86m-.87-1.68l2.348.5" stroke="#FAFAFA" stroke-width=".704" stroke-linecap="square"/><mask id="J" maskUnits="userSpaceOnUse" x="32" y="19" width="4" height="4"><path fill-rule="evenodd" clip-rule="evenodd" d="M33.245 19.321l2.075.441-.537 2.526-2.075-.441.537-2.526z" fill="#fff"/></mask><g mask="url(#J)"><path fill-rule="evenodd" clip-rule="evenodd" d="M30.83 23.067l5.172 1.099 1.196-5.623-5.172-1.1-1.196 5.624z" fill="#E8E8E8"/></g><mask id="K" maskUnits="userSpaceOnUse" x="32" y="21" width="3" height="2"><path fill-rule="evenodd" clip-rule="evenodd" d="M32.775 21.531l2.075.441-.067.316-2.075-.44.067-.317z" fill="#fff"/></mask><g mask="url(#K)"><path fill-rule="evenodd" clip-rule="evenodd" d="M30.83 23.067l5.172 1.099.726-3.413-5.172-1.1-.726 3.414z" fill="#fff"/></g><mask id="L" maskUnits="userSpaceOnUse" x="32" y="21" width="3" height="2"><path fill-rule="evenodd" clip-rule="evenodd" d="M32.708 21.847l2.075.441-.067.316-2.075-.441.067-.316z" fill="#fff"/></mask><g mask="url(#L)"><path fill-rule="evenodd" clip-rule="evenodd" d="M30.763 23.382l5.172 1.1.726-3.413-5.172-1.1-.726 3.413z" fill="#F6F6F6"/></g><mask id="M" maskUnits="userSpaceOnUse" x="33" y="18" width="3" height="3"><path fill-rule="evenodd" clip-rule="evenodd" d="M34.014 20.805c-.573-.122-.917-.786-.769-1.484.148-.698.733-1.164 1.306-1.043.573.122.917.787.769 1.484-.148.698-.733 1.164-1.306 1.043z" fill="#fff"/></mask><g mask="url(#M)"><path fill-rule="evenodd" clip-rule="evenodd" d="M31.099 21.804l5.172 1.099 1.195-5.623-5.172-1.1-1.195 5.624z" fill="#E8E8E8"/></g><mask id="N" maskUnits="userSpaceOnUse" x="32" y="20" width="4" height="2"><path fill-rule="evenodd" clip-rule="evenodd" d="M32.977 20.584l2.075.441-.202.947-2.075-.44.202-.948z" fill="#fff"/></mask><g mask="url(#N)"><path fill-rule="evenodd" clip-rule="evenodd" d="M30.897 22.75l5.173 1.1.86-4.045-5.173-1.099-.86 4.045z" fill="#D9D8D8"/></g><mask id="O" maskUnits="userSpaceOnUse" x="37" y="20" width="4" height="4"><path fill-rule="evenodd" clip-rule="evenodd" d="M38.173 20.369l2.075.44-.537 2.526-2.075-.44.537-2.526z" fill="#fff"/></mask><g mask="url(#O)"><path fill-rule="evenodd" clip-rule="evenodd" d="M35.758 24.114l5.172 1.1 1.196-5.624-5.173-1.1-1.195 5.624z" fill="#E8E8E8"/></g><mask id="P" maskUnits="userSpaceOnUse" x="37" y="22" width="3" height="2"><path fill-rule="evenodd" clip-rule="evenodd" d="M37.703 22.579l2.075.44-.067.317-2.075-.441.067-.316z" fill="#fff"/></mask><g mask="url(#P)"><path fill-rule="evenodd" clip-rule="evenodd" d="M35.758 24.114l5.172 1.1.726-3.414-5.172-1.1-.726 3.414z" fill="#fff"/></g><mask id="Q" maskUnits="userSpaceOnUse" x="37" y="22" width="3" height="2"><path fill-rule="evenodd" clip-rule="evenodd" d="M37.636 22.895l2.075.44-.067.316-2.075-.44.067-.316z" fill="#fff"/></mask><g mask="url(#Q)"><path fill-rule="evenodd" clip-rule="evenodd" d="M35.69 24.43l5.173 1.1.726-3.414-5.173-1.1-.725 3.414z" fill="#F6F6F6"/></g><mask id="R" maskUnits="userSpaceOnUse" x="38" y="19" width="3" height="3"><path fill-rule="evenodd" clip-rule="evenodd" d="M38.942 21.852c-.573-.122-.917-.786-.77-1.484.15-.697.734-1.164 1.307-1.042.573.122.917.786.769 1.483-.148.698-.733 1.165-1.306 1.043z" fill="#fff"/></mask><g mask="url(#R)"><path fill-rule="evenodd" clip-rule="evenodd" d="M36.026 22.851l5.173 1.1 1.195-5.624-5.172-1.1-1.196 5.624z" fill="#E8E8E8"/></g><mask id="S" maskUnits="userSpaceOnUse" x="37" y="21" width="3" height="3"><path fill-rule="evenodd" clip-rule="evenodd" d="M37.904 21.631l2.075.442-.201.947-2.075-.441.201-.948z" fill="#fff"/></mask><g mask="url(#S)"><path fill-rule="evenodd" clip-rule="evenodd" d="M35.825 23.798l5.172 1.1.86-4.045-5.172-1.1-.86 4.045z" fill="#D9D8D8"/></g><mask id="T" maskUnits="userSpaceOnUse" x="42" y="21" width="4" height="4"><path fill-rule="evenodd" clip-rule="evenodd" d="M43.1 21.416l2.076.44-.537 2.527-2.075-.441.537-2.526z" fill="#fff"/></mask><g mask="url(#T)"><path fill-rule="evenodd" clip-rule="evenodd" d="M40.686 25.162l5.172 1.099 1.196-5.624-5.173-1.099-1.195 5.623z" fill="#E8E8E8"/></g><mask id="U" maskUnits="userSpaceOnUse" x="42" y="23" width="3" height="2"><path fill-rule="evenodd" clip-rule="evenodd" d="M42.63 23.626l2.076.441-.067.316-2.075-.441.067-.316z" fill="#fff"/></mask><g mask="url(#U)"><path fill-rule="evenodd" clip-rule="evenodd" d="M40.686 25.162l5.172 1.099.726-3.413-5.173-1.1-.725 3.413z" fill="#fff"/></g><mask id="V" maskUnits="userSpaceOnUse" x="42" y="23" width="3" height="2"><path fill-rule="evenodd" clip-rule="evenodd" d="M42.564 23.942l2.075.441-.067.316-2.075-.441.067-.316z" fill="#fff"/></mask><g mask="url(#V)"><path fill-rule="evenodd" clip-rule="evenodd" d="M40.619 25.477l5.172 1.1.726-3.414-5.173-1.099-.725 3.413z" fill="#F6F6F6"/></g><mask id="W" maskUnits="userSpaceOnUse" x="43" y="20" width="3" height="3"><path fill-rule="evenodd" clip-rule="evenodd" d="M43.87 22.9c-.573-.122-.917-.787-.77-1.484.149-.698.734-1.164 1.307-1.043.573.122.917.786.769 1.484-.149.698-.733 1.164-1.306 1.043z" fill="#fff"/></mask><g mask="url(#W)"><path fill-rule="evenodd" clip-rule="evenodd" d="M40.954 23.898l5.173 1.1 1.195-5.624-5.172-1.099-1.196 5.623z" fill="#E8E8E8"/></g><mask id="X" maskUnits="userSpaceOnUse" x="42" y="22" width="3" height="3"><path fill-rule="evenodd" clip-rule="evenodd" d="M42.832 22.679l2.075.44-.201.948-2.075-.44.201-.948z" fill="#fff"/></mask><g mask="url(#X)"><path fill-rule="evenodd" clip-rule="evenodd" d="M40.753 24.846l5.172 1.1.86-4.046-5.172-1.099-.86 4.045z" fill="#D9D8D8"/></g><mask id="Y" maskUnits="userSpaceOnUse" x="31" y="24" width="4" height="4"><path fill-rule="evenodd" clip-rule="evenodd" d="M32.171 24.373l2.075.441-.537 2.526-2.075-.44.537-2.527z" fill="#fff"/></mask><g mask="url(#Y)"><path fill-rule="evenodd" clip-rule="evenodd" d="M29.756 28.119l5.173 1.1 1.195-5.624-5.172-1.1-1.196 5.624z" fill="#E8E8E8"/></g><mask id="Z" maskUnits="userSpaceOnUse" x="31" y="26" width="3" height="2"><path fill-rule="evenodd" clip-rule="evenodd" d="M31.701 26.583l2.075.441-.067.316-2.075-.44.067-.317z" fill="#fff"/></mask><g mask="url(#Z)"><path fill-rule="evenodd" clip-rule="evenodd" d="M29.756 28.119l5.173 1.1.725-3.414-5.172-1.1-.726 3.414z" fill="#fff"/></g><mask id="aa" maskUnits="userSpaceOnUse" x="31" y="26" width="3" height="2"><path fill-rule="evenodd" clip-rule="evenodd" d="M31.634 26.9l2.075.44-.067.316-2.075-.441.067-.316z" fill="#fff"/></mask><g mask="url(#aa)"><path fill-rule="evenodd" clip-rule="evenodd" d="M29.69 28.434l5.172 1.1.725-3.413-5.172-1.1-.726 3.413z" fill="#F6F6F6"/></g><mask id="ab" maskUnits="userSpaceOnUse" x="32" y="23" width="3" height="3"><path fill-rule="evenodd" clip-rule="evenodd" d="M32.94 25.857c-.573-.122-.917-.786-.769-1.484.148-.698.733-1.164 1.306-1.042.573.121.917.786.77 1.483-.15.698-.734 1.164-1.307 1.043z" fill="#fff"/></mask><g mask="url(#ab)"><path fill-rule="evenodd" clip-rule="evenodd" d="M30.025 26.856l5.172 1.099 1.195-5.623-5.172-1.1-1.195 5.624z" fill="#E8E8E8"/></g><mask id="ac" maskUnits="userSpaceOnUse" x="31" y="25" width="3" height="3"><path fill-rule="evenodd" clip-rule="evenodd" d="M31.903 25.636l2.075.441-.202.947-2.075-.44.202-.948z" fill="#fff"/></mask><g mask="url(#ac)"><path fill-rule="evenodd" clip-rule="evenodd" d="M29.823 27.803l5.173 1.1.86-4.045-5.173-1.1-.86 4.045z" fill="#D9D8D8"/></g><mask id="ad" maskUnits="userSpaceOnUse" x="36" y="25" width="4" height="4"><path fill-rule="evenodd" clip-rule="evenodd" d="M37.1 25.42l2.074.442-.537 2.526-2.075-.441.537-2.526z" fill="#fff"/></mask><g mask="url(#ad)"><path fill-rule="evenodd" clip-rule="evenodd" d="M34.684 29.166l5.173 1.1 1.195-5.624-5.172-1.1-1.196 5.624z" fill="#E8E8E8"/></g><mask id="ae" maskUnits="userSpaceOnUse" x="36" y="27" width="3" height="2"><path fill-rule="evenodd" clip-rule="evenodd" d="M36.63 27.63l2.074.442-.067.316-2.075-.441.067-.316z" fill="#fff"/></mask><g mask="url(#ae)"><path fill-rule="evenodd" clip-rule="evenodd" d="M34.684 29.166l5.172 1.1.726-3.414-5.172-1.1-.726 3.414z" fill="#fff"/></g><mask id="af" maskUnits="userSpaceOnUse" x="36" y="27" width="3" height="2"><path fill-rule="evenodd" clip-rule="evenodd" d="M36.562 27.947l2.075.44-.067.316-2.075-.44.067-.316z" fill="#fff"/></mask><g mask="url(#af)"><path fill-rule="evenodd" clip-rule="evenodd" d="M34.617 29.482l5.172 1.1.726-3.414-5.172-1.1-.726 3.414z" fill="#F6F6F6"/></g><mask id="ag" maskUnits="userSpaceOnUse" x="37" y="24" width="3" height="3"><path fill-rule="evenodd" clip-rule="evenodd" d="M37.868 26.904c-.573-.122-.917-.786-.769-1.483.148-.698.733-1.165 1.306-1.043.573.122.917.786.769 1.484-.148.697-.733 1.164-1.306 1.042z" fill="#fff"/></mask><g mask="url(#ag)"><path fill-rule="evenodd" clip-rule="evenodd" d="M34.953 27.903l5.172 1.1 1.195-5.624-5.172-1.1-1.195 5.624z" fill="#E8E8E8"/></g><mask id="ah" maskUnits="userSpaceOnUse" x="36" y="26" width="3" height="3"><path fill-rule="evenodd" clip-rule="evenodd" d="M36.83 26.683l2.075.442-.2.947-2.076-.441.202-.948z" fill="#fff"/></mask><g mask="url(#ah)"><path fill-rule="evenodd" clip-rule="evenodd" d="M34.751 28.85l5.173 1.1.86-4.045-5.173-1.1-.86 4.045z" fill="#D9D8D8"/></g><mask id="ai" maskUnits="userSpaceOnUse" x="41" y="26" width="4" height="4"><path fill-rule="evenodd" clip-rule="evenodd" d="M42.027 26.468l2.075.441-.537 2.526-2.075-.441.537-2.526z" fill="#fff"/></mask><g mask="url(#ai)"><path fill-rule="evenodd" clip-rule="evenodd" d="M39.612 30.213l5.172 1.1 1.196-5.624-5.173-1.099-1.195 5.623z" fill="#E8E8E8"/></g><mask id="aj" maskUnits="userSpaceOnUse" x="41" y="28" width="3" height="2"><path fill-rule="evenodd" clip-rule="evenodd" d="M41.557 28.678l2.075.441-.067.316-2.075-.441.067-.316z" fill="#fff"/></mask><g mask="url(#aj)"><path fill-rule="evenodd" clip-rule="evenodd" d="M39.612 30.214l5.172 1.099.726-3.413-5.172-1.1-.726 3.414z" fill="#fff"/></g><mask id="ak" maskUnits="userSpaceOnUse" x="41" y="28" width="3" height="2"><path fill-rule="evenodd" clip-rule="evenodd" d="M41.49 28.994l2.075.441-.067.316-2.075-.441.067-.316z" fill="#fff"/></mask><g mask="url(#ak)"><path fill-rule="evenodd" clip-rule="evenodd" d="M39.545 30.53l5.172 1.099.726-3.414-5.173-1.099-.725 3.413z" fill="#F6F6F6"/></g><mask id="al" maskUnits="userSpaceOnUse" x="41" y="25" width="4" height="3"><path fill-rule="evenodd" clip-rule="evenodd" d="M42.796 27.951c-.573-.121-.917-.785-.77-1.483.15-.698.734-1.164 1.307-1.043.573.122.917.787.769 1.484-.148.698-.733 1.164-1.306 1.043z" fill="#fff"/></mask><g mask="url(#al)"><path fill-rule="evenodd" clip-rule="evenodd" d="M39.88 28.95l5.173 1.1 1.195-5.624-5.172-1.099-1.196 5.623z" fill="#E8E8E8"/></g><mask id="am" maskUnits="userSpaceOnUse" x="41" y="27" width="3" height="3"><path fill-rule="evenodd" clip-rule="evenodd" d="M41.758 27.731l2.075.441-.201.947-2.075-.44.201-.948z" fill="#fff"/></mask><g mask="url(#am)"><path fill-rule="evenodd" clip-rule="evenodd" d="M39.68 29.898l5.172 1.1.86-4.046-5.173-1.099-.86 4.045z" fill="#D9D8D8"/></g><path d="M39.678 37.52l.537-2.527c.148-.697.733-1.164 1.306-1.042.573.122.917.786.769 1.483v0l-.537 2.526" stroke="#fff" stroke-width="1.267"/><mask id="an" maskUnits="userSpaceOnUse" x="39" y="33" width="4" height="5"><path fill-rule="evenodd" clip-rule="evenodd" d="M42.29 35.434l-.537 2.526-2.075-.44.537-2.527c.148-.697.733-1.164 1.306-1.042.573.122.917.786.769 1.483z" fill="#fff"/></mask><g mask="url(#an)"><path fill-rule="evenodd" clip-rule="evenodd" d="M37.8 38.739l5.172 1.1 1.464-6.887-5.172-1.1L37.8 38.74z" fill="#E8E8E8"/></g><mask id="ao" maskUnits="userSpaceOnUse" x="40" y="33" width="3" height="4"><path fill-rule="evenodd" clip-rule="evenodd" d="M42.155 36.066l-2.075-.441.068-.316.067-.316c.148-.697.733-1.164 1.306-1.042.573.122.917.786.769 1.483l-.135.632z" fill="#fff"/></mask><g mask="url(#ao)"><path fill-rule="evenodd" clip-rule="evenodd" d="M38.203 36.844l5.172 1.1 1.061-4.992-5.172-1.1-1.061 4.992z" fill="#D9D8D8"/></g><mask id="ap" maskUnits="userSpaceOnUse" x="39" y="37" width="3" height="1"><path fill-rule="evenodd" clip-rule="evenodd" d="M39.745 37.204l2.075.44-.067.317-2.075-.442.067-.315z" fill="#fff"/></mask><g mask="url(#ap)"><path fill-rule="evenodd" clip-rule="evenodd" d="M37.8 38.739l5.172 1.1.726-3.414-5.173-1.1-.725 3.414z" fill="#fff"/></g><mask id="aq" maskUnits="userSpaceOnUse" x="39" y="37" width="4" height="2"><path fill-rule="evenodd" clip-rule="evenodd" d="M39.226 37.093l3.113.662-.135.631-3.112-.661.134-.632z" fill="#fff"/></mask><g mask="url(#aq)"><path fill-rule="evenodd" clip-rule="evenodd" d="M37.214 38.944l6.21 1.32.793-3.729-6.21-1.32-.793 3.73z" fill="#fff"/></g><mask id="ar" maskUnits="userSpaceOnUse" x="39" y="37" width="4" height="2"><path fill-rule="evenodd" clip-rule="evenodd" d="M39.092 37.725l3.112.661-.067.316-3.112-.661.067-.316z" fill="#fff"/></mask><g mask="url(#ar)"><path fill-rule="evenodd" clip-rule="evenodd" d="M37.147 39.26l6.21 1.32.725-3.413-6.21-1.32-.725 3.413z" fill="#F6F6F6"/></g><path d="M29.822 35.425l.537-2.526c.148-.698.733-1.165 1.306-1.043.573.122.917.786.769 1.483v0l-.537 2.526" stroke="#fff" stroke-width="1.267"/><mask id="as" maskUnits="userSpaceOnUse" x="29" y="31" width="4" height="5"><path fill-rule="evenodd" clip-rule="evenodd" d="M32.434 33.34l-.537 2.525-2.075-.44.537-2.526c.148-.698.733-1.165 1.306-1.043.573.122.917.786.769 1.483z" fill="#fff"/></mask><g mask="url(#as)"><path fill-rule="evenodd" clip-rule="evenodd" d="M27.944 36.644l5.173 1.1 1.463-6.887-5.172-1.1-1.464 6.887z" fill="#E8E8E8"/></g><mask id="at" maskUnits="userSpaceOnUse" x="30" y="31" width="3" height="3"><path fill-rule="evenodd" clip-rule="evenodd" d="M32.3 33.971l-2.075-.441.067-.316.067-.316c.148-.697.733-1.164 1.306-1.042.573.122.917.786.769 1.483l-.134.632z" fill="#fff"/></mask><g mask="url(#at)"><path fill-rule="evenodd" clip-rule="evenodd" d="M28.347 34.75l5.172 1.099 1.061-4.992-5.172-1.1-1.061 4.992z" fill="#D9D8D8"/></g><mask id="au" maskUnits="userSpaceOnUse" x="29" y="35" width="3" height="1"><path fill-rule="evenodd" clip-rule="evenodd" d="M29.89 35.109l2.074.44-.067.317-2.075-.441.067-.316z" fill="#fff"/></mask><g mask="url(#au)"><path fill-rule="evenodd" clip-rule="evenodd" d="M27.944 36.644l5.173 1.1.725-3.414-5.172-1.1-.726 3.414z" fill="#fff"/></g><mask id="av" maskUnits="userSpaceOnUse" x="29" y="34" width="4" height="3"><path fill-rule="evenodd" clip-rule="evenodd" d="M29.37 34.998l3.113.662-.134.632-3.113-.662.134-.632z" fill="#fff"/></mask><g mask="url(#av)"><path fill-rule="evenodd" clip-rule="evenodd" d="M27.358 36.85l6.21 1.32.793-3.73-6.21-1.32-.793 3.73z" fill="#fff"/></g><mask id="aw" maskUnits="userSpaceOnUse" x="29" y="35" width="4" height="2"><path fill-rule="evenodd" clip-rule="evenodd" d="M29.236 35.63l3.113.661-.067.316-3.113-.661.067-.316z" fill="#fff"/></mask><g mask="url(#aw)"><path fill-rule="evenodd" clip-rule="evenodd" d="M27.291 37.165l6.21 1.32.726-3.413-6.21-1.32-.726 3.413z" fill="#F6F6F6"/></g><mask id="ax" maskUnits="userSpaceOnUse" x="33" y="31" width="6" height="9"><path fill-rule="evenodd" clip-rule="evenodd" d="M37.431 39.16l-4.149-.881.905-4.237c.009-.057.02-.114.032-.172.296-1.395 1.466-2.328 2.611-2.085 1.147.244 1.835 1.572 1.538 2.967l-.036.171-.9 4.238z" fill="#fff"/></mask><g mask="url(#ax)"><path fill-rule="evenodd" clip-rule="evenodd" d="M31.23 40.313l7.248 1.54 2.305-10.846-7.247-1.54-2.305 10.846z" fill="#E8E8E8"/></g><mask id="ay" maskUnits="userSpaceOnUse" x="34" y="34" width="4" height="5"><path fill-rule="evenodd" clip-rule="evenodd" d="M34.826 34.838l2.594.551-.767 3.606-2.593-.55.766-3.607z" fill="#fff"/></mask><g mask="url(#ay)"><path fill-rule="evenodd" clip-rule="evenodd" d="M32.009 40.478l5.69 1.21 1.599-7.518-5.691-1.21-1.598 7.518z" fill="#D9D8D8"/></g><mask id="az" maskUnits="userSpaceOnUse" x="33" y="31" width="6" height="9"><path fill-rule="evenodd" clip-rule="evenodd" d="M34.756 31.344l4.15.882-1.475 6.935-4.15-.882 1.475-6.935z" fill="#fff"/></mask><g mask="url(#az)"><path d="M37.258 39.975l1.074-5.052c.01-.057.024-.113.036-.17.297-1.396-.392-2.724-1.537-2.968-1.146-.243-2.316.69-2.612 2.085a3.177 3.177 0 00-.032.172l-1.078 5.051" stroke="#fff" stroke-width=".704"/></g><mask id="aA" maskUnits="userSpaceOnUse" x="34" y="32" width="4" height="3"><path fill-rule="evenodd" clip-rule="evenodd" d="M34.96 34.207c.186-.872.917-1.456 1.633-1.303.716.152 1.146.982.961 1.854l-2.594-.551z" fill="#fff"/></mask><g mask="url(#aA)"><path fill-rule="evenodd" clip-rule="evenodd" d="M33.083 35.426l5.69 1.21.994-4.676-5.69-1.21-.994 4.676z" fill="#D8D8D8"/></g><mask id="aB" maskUnits="userSpaceOnUse" x="35" y="32" width="3" height="3"><path fill-rule="evenodd" clip-rule="evenodd" d="M35.418 33.318c.318-.336.75-.505 1.175-.415.494.105.852.533.965 1.074l-.907.589-.49-.104-.743-1.144z" fill="#fff"/></mask><g mask="url(#aB)"><path clip-rule="evenodd" d="M35.05 32.752l1.649-1.07 1.303 2.006-1.648 1.071-1.304-2.007z" stroke="#E8E8E8" stroke-width=".704"/></g></g><g filter="url(#filter0_d)"><mask id="aC" maskUnits="userSpaceOnUse" x="0" y="2" width="43" height="36"><path fill-rule="evenodd" clip-rule="evenodd" d="M.707 8.707L38.24 2.763l4.623 29.191L5.331 37.9.707 8.707z" fill="#fff"/></mask><g mask="url(#aC)" fill-rule="evenodd" clip-rule="evenodd"><path d="M.707 8.707L39.63 2.543l4.843 30.581L5.551 39.29.707 8.707z" fill="#80A8E4"/><path d="M3.79 41.886l-.926-7.256 40.824-6.466.872 5.505-40.77 8.217z" fill="#A5ADB5"/></g><path fill="#D2D5DA" d="M10.096 23l23.817-3.772 1.765 11.144-23.817 3.772z"/><path fill="#fff" d="M24.725 22.027l6.119-.97.623 3.934-6.119.969z"/><path fill="#D2D5DA" d="M25.231 22.394l4.807-.761.485 3.059-4.808.76z"/><path fill="#fff" d="M25.221 23.74l5.9-.934.069.436-5.9.934z"/><path fill="#fff" d="M24.76 22.245l1.966-.312.554 3.497-1.966.311z"/><path fill="#C6C6C6" d="M25.231 22.394l1.092-.173.042.26-1.093.174zm.104.656l1.092-.173.042.26-1.093.174zm.104.655l1.092-.173.042.26-1.093.174zm.104.656l1.092-.173.042.26-1.093.174zm.104.656l1.092-.173.042.26-1.093.174z"/><path fill="#fff" d="M28.91 21.587l1.967-.311.554 3.496-1.966.311z"/><path fill="#C6C6C6" d="M29.383 21.737l1.092-.173.042.26-1.093.174zm.104.655l1.092-.173.042.26-1.093.174zm.104.656l1.092-.173.042.26-1.093.174zm.104.655l1.092-.173.042.26-1.093.174zm.103.656l1.092-.173.042.26-1.093.174z"/><path fill="#fff" d="M13.363 23.826l6.774-1.073.969 6.119-6.774 1.073z"/><path fill="#fff" d="M15.329 23.515l2.84-.45.97 6.119-2.84.45z"/><path fill="#D2D5DA" d="M15.835 23.883l.874-.138.139.874-.874.138zm1.093-.174l.874-.138.138.874-.874.138zm-.919 1.266l.874-.139.139.875-.875.138zm1.092-.173l.874-.138.139.874-.875.138zm-.919 1.266l.874-.139.139.875-.874.138zm1.092-.173l.874-.138.139.874-.874.138zm-.919 1.265l.874-.139.139.875-.875.138zm1.092-.173l.874-.138.139.874-.875.138zm-.919 1.266l.874-.139.139.875-.875.138zm1.092-.173l.874-.138.139.874-.875.138zm-3.751-3.886l.874-.138.139.874-.875.138zm.173 1.093l.874-.138.139.874-.874.138zm.173 1.092l.874-.138.139.874-.875.138zm.173 1.093l.874-.138.139.874-.874.138zm.173 1.092l.874-.138.139.874-.875.138zm4.334-5.166l.874-.139.139.875-.875.138zm.173 1.092l.874-.138.139.875-.874.138zm.173 1.093l.874-.138.139.874-.875.138zm.173 1.093l.874-.138.139.874-.874.138zm.173 1.092l.874-.138.139.874-.875.138z"/><path fill="#fff" d="M23.992 27.294l9.396-1.488.104.656-9.396 1.488zm.415 2.623l9.396-1.488.104.656-9.396 1.488z"/><path fill="#fff" d="M24.06 27.731l.657-.104.346 2.185-.656.104zm1.128.046l.656-.104.346 2.185-.656.104zm1.058-.392l.656-.104.346 2.185-.656.104zm1.092-.173l.656-.104.346 2.185-.656.104zm1.093-.173l.656-.104.346 2.185-.656.104zm1.092-.173l.656-.104.346 2.185-.656.104zm1.093-.173l.656-.104.346 2.185-.656.104zm1.093-.173l.656-.104.346 2.185-.656.104zm1.092-.173l.656-.104.346 2.185-.656.104z"/><path fill="#EDEDED" d="M13.367 32.337l20.54-3.253.242 1.53-20.54 3.253z"/><path fill-rule="evenodd" clip-rule="evenodd" d="M20.626 11.7l13.333 6.4-24.036 3.807L20.626 11.7z" fill="#697684"/><path fill="#EDEDED" d="M9.923 21.907L33.959 18.1l.173 1.092L10.096 23z"/><mask id="aD" maskUnits="userSpaceOnUse" x="5" y="31" width="41" height="23"><path fill-rule="evenodd" clip-rule="evenodd" d="M5.331 37.899l37.532-5.945 2.422 15.291L7.753 53.19 5.33 37.899z" fill="#fff"/></mask><g mask="url(#aD)"><path fill-rule="evenodd" clip-rule="evenodd" d="M5.331 37.899l38.922-6.165 2.642 16.681L7.973 54.58 5.331 37.899z" fill="#fff"/></g><mask id="aE" maskUnits="userSpaceOnUse" x="8" y="37" width="31" height="7"><path fill-rule="evenodd" clip-rule="evenodd" d="M8.547 41.892l29.655-4.697.235 1.483-29.655 4.697-.235-1.483z" fill="#fff"/></mask><g mask="url(#aE)"><path fill-rule="evenodd" clip-rule="evenodd" d="M7.689 41.268l31.137-4.931.47 2.965-31.138 4.932-.47-2.966z" fill="#F7F8F9"/></g><mask id="aF" maskUnits="userSpaceOnUse" x="9" y="41" width="23" height="6"><path fill-rule="evenodd" clip-rule="evenodd" d="M9.076 45.228l22.241-3.522.235 1.483L9.31 46.71l-.235-1.483z" fill="#fff"/></mask><g mask="url(#aF)"><path fill-rule="evenodd" clip-rule="evenodd" d="M8.217 44.605l23.724-3.758.47 2.965L8.687 47.57l-.47-2.965z" fill="#F7F8F9"/></g><mask id="aG" maskUnits="userSpaceOnUse" x="9" y="44" width="24" height="6"><path fill-rule="evenodd" clip-rule="evenodd" d="M9.534 48.12l22.241-3.523.235 1.483-22.241 3.523-.235-1.483z" fill="#fff"/></mask><g mask="url(#aG)"><path fill-rule="evenodd" clip-rule="evenodd" d="M8.675 47.496l23.724-3.758.47 2.966L9.145 50.46l-.47-2.965z" fill="#F7F8F9"/></g></g><defs><filter id="filter0_d" x=".707" y="2.763" width="46.578" height="52.427" filterUnits="userSpaceOnUse" color-interpolation-filters="sRGB"><feFlood flood-opacity="0" result="BackgroundImageFix"/><feColorMatrix in="SourceAlpha" values="0 0 0 0 0 0 0 0 0 0 0 0 0 0 0 0 0 0 127 0"/><feOffset dx="1" dy="1"/><feGaussianBlur stdDeviation=".5"/><feColorMatrix values="0 0 0 0 0 0 0 0 0 0 0 0 0 0 0 0 0 0 0.2 0"/><feBlend in2="BackgroundImageFix" result="effect1_dropShadow"/><feBlend in="SourceGraphic" in2="effect1_dropShadow" result="shape"/></filter></defs></svg>
