<svg width="60" height="60" viewBox="0 0 60 60" fill="none" xmlns="http://www.w3.org/2000/svg">
<path fill-rule="evenodd" clip-rule="evenodd" d="M30 60C13.4315 60 0 46.5685 0 30C0 13.4315 13.4315 0 30 0C46.5685 0 60 13.4315 60 30C60 46.5685 46.5685 60 30 60Z" fill="#F4F7FC"/>
<mask id="mask0" style="mask-type:alpha" maskUnits="userSpaceOnUse" x="1" y="1" width="58" height="58">
<path fill-rule="evenodd" clip-rule="evenodd" d="M30 59C13.9837 59 1 46.0163 1 30C1 13.9837 13.9837 1 30 1C46.0163 1 59 13.9837 59 30C59 46.0163 46.0163 59 30 59Z" fill="#F4F7FC"/>
</mask>
<g mask="url(#mask0)">
<g filter="url(#filter0_d)">
<rect x="5" y="37" width="50" height="27" fill="white"/>
</g>
<rect x="34" y="41" width="15" height="1" fill="#E9EBED"/>
<rect x="34" y="44" width="12" height="1" fill="#E9EBED"/>
<rect x="34" y="47" width="16" height="1" fill="#E9EBED"/>
<rect x="5" y="37" width="25" height="16" fill="#D2D5DA"/>
<rect x="11" y="44" width="14" height="7" fill="#E9EBED"/>
<rect x="13" y="45" width="3" height="5" fill="#A5ADB5"/>
<rect x="19" y="46" width="4" height="3" fill="white"/>
<path fill-rule="evenodd" clip-rule="evenodd" d="M18 39L25 44H11L18 39Z" fill="#697684"/>
<rect x="10" y="50" width="16" height="1" fill="white"/>
</g>
<g filter="url(#filter1_d)">
<rect x="5" y="7" width="50" height="27" fill="white"/>
</g>
<rect x="34" y="11" width="15" height="1" fill="#E9EBED"/>
<rect x="14" y="29" width="7" height="1" fill="#E9EBED"/>
<rect x="34" y="14" width="12" height="1" fill="#E9EBED"/>
<rect x="34" y="17" width="16" height="1" fill="#E9EBED"/>
<circle cx="10.5" cy="29.5" r="1.5" fill="#D2D5DA"/>
<rect x="5" y="7" width="25" height="16" fill="#A5ADB5"/>
<path fill-rule="evenodd" clip-rule="evenodd" d="M52.8493 11.7071C53.2398 11.3166 53.873 11.3166 54.2635 11.7071L57.0919 14.5355C57.4825 14.9261 57.4825 15.5592 57.0919 15.9497L45.7782 27.2635L40.1433 28.6996L41.5356 23.0208L52.8493 11.7071Z" fill="#E4002B"/>
<path d="M41.5355 23.0208L45.7781 27.2634" stroke="white" stroke-linecap="round" stroke-linejoin="round"/>
<path d="M51.4351 13.1213L55.6777 17.364" stroke="white" stroke-linecap="round" stroke-linejoin="round"/>
<rect x="11" y="15" width="14" height="6" fill="#D2D5DA"/>
<rect x="20" y="16" width="3" height="2" fill="white"/>
<rect x="19" y="19" width="5" height="1" fill="white"/>
<rect x="13" y="16" width="4" height="3" fill="white"/>
<rect x="12" y="20" width="12" height="1" fill="#E9EBED"/>
<path fill-rule="evenodd" clip-rule="evenodd" d="M18 9L25 14H11L18 9Z" fill="#494959"/>
<rect x="11" y="14" width="14" height="1" fill="#E9EBED"/>
<defs>
<filter id="filter0_d" x="4" y="37" width="52" height="29" filterUnits="userSpaceOnUse" color-interpolation-filters="sRGB">
<feFlood flood-opacity="0" result="BackgroundImageFix"/>
<feColorMatrix in="SourceAlpha" type="matrix" values="0 0 0 0 0 0 0 0 0 0 0 0 0 0 0 0 0 0 127 0" result="hardAlpha"/>
<feOffset dy="1"/>
<feGaussianBlur stdDeviation="0.5"/>
<feColorMatrix type="matrix" values="0 0 0 0 0 0 0 0 0 0 0 0 0 0 0 0 0 0 0.2 0"/>
<feBlend mode="normal" in2="BackgroundImageFix" result="effect1_dropShadow"/>
<feBlend mode="normal" in="SourceGraphic" in2="effect1_dropShadow" result="shape"/>
</filter>
<filter id="filter1_d" x="4" y="7" width="52" height="29" filterUnits="userSpaceOnUse" color-interpolation-filters="sRGB">
<feFlood flood-opacity="0" result="BackgroundImageFix"/>
<feColorMatrix in="SourceAlpha" type="matrix" values="0 0 0 0 0 0 0 0 0 0 0 0 0 0 0 0 0 0 127 0" result="hardAlpha"/>
<feOffset dy="1"/>
<feGaussianBlur stdDeviation="0.5"/>
<feColorMatrix type="matrix" values="0 0 0 0 0 0 0 0 0 0 0 0 0 0 0 0 0 0 0.2 0"/>
<feBlend mode="normal" in2="BackgroundImageFix" result="effect1_dropShadow"/>
<feBlend mode="normal" in="SourceGraphic" in2="effect1_dropShadow" result="shape"/>
</filter>
</defs>
</svg>
