<svg width="60" height="60" fill="none" xmlns="http://www.w3.org/2000/svg"><g filter="url(#filter0_d)"><path d="M10 3h7l-4 2.5L10 8V3z" fill="#fff"/></g><g filter="url(#filter1_d)"><path d="M42.5 3H49v4.5L42.5 3z" fill="#fff"/></g><path fill-rule="evenodd" clip-rule="evenodd" d="M30 60C13.431 60 0 46.569 0 30 0 13.431 13.431 0 30 0c16.569 0 30 13.431 30 30 0 16.569-13.431 30-30 30z" fill="#F4F7FC"/><mask id="a" maskUnits="userSpaceOnUse" x="0" y="0" width="60" height="60"><path fill-rule="evenodd" clip-rule="evenodd" d="M30 60C13.431 60 0 46.569 0 30 0 13.431 13.431 0 30 0c16.569 0 30 13.431 30 30 0 16.569-13.431 30-30 30z" fill="#fff"/></mask><g mask="url(#a)"><path fill-rule="evenodd" clip-rule="evenodd" d="M-1 50.826C-1 44.847 2.141 40 6.014 40h10.972C20.86 40 24 44.858 24 50.826v5.348C24 62.153 20.859 67 16.986 67H6.014C2.14 67-1 62.142-1 56.174v-5.348z" fill="#FDDFC2"/><mask id="b" maskUnits="userSpaceOnUse" x="11" y="7" width="38" height="30"><path fill-rule="evenodd" clip-rule="evenodd" d="M11 7h38v29.556H11V7z" fill="#fff"/></mask><g mask="url(#b)"><path fill-rule="evenodd" clip-rule="evenodd" d="M11 7h39.407v30.963H11V7z" fill="#E9EBED"/></g><path fill-rule="evenodd" clip-rule="evenodd" d="M-11 50.218C-11 46.23-6.1 43-.059 43h17.117C23.101 43 28 46.239 28 50.218v3.564C28 57.77 23.1 61 17.058 61H-.059C-6.1 61-11 57.761-11 53.782v-3.564z" fill="#FDDFC2"/><path fill-rule="evenodd" clip-rule="evenodd" d="M13.244 7l38.682 4.97-6.076 47.294-38.682-4.97L13.244 7z" fill="#fff"/><g filter="url(#filter2_d)"><path fill-rule="evenodd" clip-rule="evenodd" d="M10 3h39v53H10V3z" fill="#fff"/></g><path opacity=".6" fill="#DDD" d="M27.438 16h18.563v2H27.438zm0 4h18.563v2H27.438zM13 27h33v2H13zm0 4h33v2H13zm21.656 6H46v2H34.656z"/><path opacity=".5" fill="#DDD" d="M34.656 41H46v2H34.656z"/><path opacity=".6" fill="#DDD" d="M13 37h19.594v2H13z"/><path opacity=".5" fill="#DDD" d="M13 41h19.594v2H13z"/><path opacity=".4" fill="#DDD" d="M13 45h19.594v2H13zm21.656 0H46v2H34.656z"/><path opacity=".3" fill="#DDD" d="M13 49h19.594v2H13zm21.656 0H46v2H34.656z"/><mask id="c" maskUnits="userSpaceOnUse" x="13" y="8" width="12" height="14"><path fill="#C4C4C4" d="M13 8h12v14H13z"/></mask><g mask="url(#c)"><path fill="#68D8D1" d="M12 7h13v17H12z"/><path d="M24.985 24c-1.628 1.25-3.713 2-5.985 2-2.272 0-4.357-.75-5.985-2a5.301 5.301 0 01-.015-.4c0-3.093 2.686-5.6 6-5.6s6 2.507 6 5.6c0 .134-.005.268-.015.4z" fill="#fff"/><path fill-rule="evenodd" clip-rule="evenodd" d="M18.818 17.636a3.818 3.818 0 100-7.636 3.818 3.818 0 000 7.636z" fill="#fff"/></g><path fill-rule="evenodd" clip-rule="evenodd" d="M29.454 11.801l-1.264.7.242-1.481-1.023-1.048 1.413-.216.633-1.347.632 1.347 1.413.216-1.023 1.048.242 1.48-1.265-.699zm7.001 0l-1.265.7.242-1.481-1.023-1.048 1.413-.216.633-1.347.632 1.347 1.413.216-1.023 1.048.242 1.48-1.264-.699zm7 0l-1.265.7.242-1.481-1.023-1.048 1.413-.216.633-1.347.632 1.347 1.413.216-1.023 1.048.242 1.48-1.264-.699z" fill="#FFB200" stroke="#FFB200" stroke-width=".818" stroke-linecap="round" stroke-linejoin="round"/><path fill-rule="evenodd" clip-rule="evenodd" d="M1.302 50.182A4.604 4.604 0 012.978 43.9l16.631-9.602a4.602 4.602 0 016.28 1.69 4.604 4.604 0 01-1.676 6.284L7.582 51.873a4.602 4.602 0 01-6.28-1.69z" fill="#FFE8D2"/></g><defs><filter id="filter0_d" x="7" y="1" width="13" height="11" filterUnits="userSpaceOnUse" color-interpolation-filters="sRGB"><feFlood flood-opacity="0" result="BackgroundImageFix"/><feColorMatrix in="SourceAlpha" values="0 0 0 0 0 0 0 0 0 0 0 0 0 0 0 0 0 0 127 0"/><feOffset dy="1"/><feGaussianBlur stdDeviation="1.5"/><feColorMatrix values="0 0 0 0 0 0 0 0 0 0 0 0 0 0 0 0 0 0 0.2 0"/><feBlend in2="BackgroundImageFix" result="effect1_dropShadow"/><feBlend in="SourceGraphic" in2="effect1_dropShadow" result="shape"/></filter><filter id="filter1_d" x="39.5" y="1" width="12.5" height="10.5" filterUnits="userSpaceOnUse" color-interpolation-filters="sRGB"><feFlood flood-opacity="0" result="BackgroundImageFix"/><feColorMatrix in="SourceAlpha" values="0 0 0 0 0 0 0 0 0 0 0 0 0 0 0 0 0 0 127 0"/><feOffset dy="1"/><feGaussianBlur stdDeviation="1.5"/><feColorMatrix values="0 0 0 0 0 0 0 0 0 0 0 0 0 0 0 0 0 0 0.2 0"/><feBlend in2="BackgroundImageFix" result="effect1_dropShadow"/><feBlend in="SourceGraphic" in2="effect1_dropShadow" result="shape"/></filter><filter id="filter2_d" x="7" y="1" width="45" height="59" filterUnits="userSpaceOnUse" color-interpolation-filters="sRGB"><feFlood flood-opacity="0" result="BackgroundImageFix"/><feColorMatrix in="SourceAlpha" values="0 0 0 0 0 0 0 0 0 0 0 0 0 0 0 0 0 0 127 0"/><feOffset dy="1"/><feGaussianBlur stdDeviation="1.5"/><feColorMatrix values="0 0 0 0 0 0 0 0 0 0 0 0 0 0 0 0 0 0 0.2 0"/><feBlend in2="BackgroundImageFix" result="effect1_dropShadow"/><feBlend in="SourceGraphic" in2="effect1_dropShadow" result="shape"/></filter></defs></svg>
