<svg width="60" height="60" fill="none" xmlns="http://www.w3.org/2000/svg"><path fill-rule="evenodd" clip-rule="evenodd" d="M30 60C13.431 60 0 46.569 0 30 0 13.431 13.431 0 30 0c16.569 0 30 13.431 30 30 0 16.569-13.431 30-30 30z" fill="#F4F7FC"/><mask id="a" maskUnits="userSpaceOnUse" x="0" y="0" width="60" height="60"><path d="M30 60C13.431 60 0 46.569 0 30 0 13.431 13.431 0 30 0c16.569 0 30 13.431 30 30 0 16.569-13.431 30-30 30z" fill="#fff"/></mask><g mask="url(#a)"><path d="M52.72 38.023H6.163v21.782H52.72V38.023z" fill="#D2D5DA"/><path d="M46.313 40.586h-11.96v7.688h11.96v-7.688z" fill="#fff"/><path d="M44.604 41.44h-9.396v5.98h9.396v-5.98z" fill="#D2D5DA"/><path d="M46.313 44.003H34.78v1h11.532v-1z" fill="#fff"/><path d="M38.197 41.013h-3.844v6.834h3.844v-6.834z" fill="#fff"/><path d="M37.343 41.44h-2.136v1h2.136v-1zm0 1.282h-2.136v1h2.136v-1zm0 1.281h-2.136v1h2.136v-1zm0 1.281h-2.136v1h2.136v-1zm0 1.281h-2.136v1h2.136v-1z" fill="#C6C6C6"/><path d="M46.313 41.013h-3.844v6.834h3.844v-6.834z" fill="#fff"/><path d="M45.458 41.44h-2.135v1h2.135v-1zm0 1.282h-2.135v1h2.135v-1zm0 1.281h-2.135v1h2.135v-1zm0 1.281h-2.135v1h2.135v-1zm0 1.281h-2.135v1h2.135v-1z" fill="#C6C6C6"/><path d="M25.384 40.586h-13.24v11.959h13.24v-11.96z" fill="#fff"/><path d="M21.54 40.586h-5.552v11.959h5.552v-11.96z" fill="#fff"/><path d="M18.55 41.44h-1.708v1.708h1.708V41.44zm2.136 0h-1.709v1.708h1.709V41.44zm-2.136 2.136h-1.708v1.708h1.708v-1.708zm2.136 0h-1.709v1.708h1.709v-1.708zM18.55 45.71h-1.708v1.71h1.708v-1.71zm2.136 0h-1.709v1.71h1.709v-1.71zm-2.136 2.137h-1.708v1.708h1.708v-1.708zm2.136 0h-1.709v1.708h1.709v-1.708zm-2.136 2.135h-1.708v1.708h1.708v-1.708zm2.136 0h-1.709v1.708h1.709v-1.708zm3.844-8.542h-1.71v1.708h1.709V41.44zm0 2.136h-1.71v1.708h1.709v-1.708zm0 2.134h-1.71v1.71h1.709v-1.71zm0 2.137h-1.71v1.708h1.709v-1.708zm0 2.135h-1.71v1.708h1.709v-1.708zm-10-8.542h-1.71v1.708h1.709V41.44zm0 2.136h-1.71v1.708h1.709v-1.708zm0 2.134h-1.71v1.71h1.709v-1.71zm0 2.137h-1.71v1.708h1.709v-1.708zm0 2.135h-1.71v1.708h1.709v-1.708z" fill="#D2D5DA"/><path d="M49.73 50.41H31.364v1.281H49.73V50.41zm0 5.125H31.364v1.282H49.73v-1.282z" fill="#fff"/><path d="M32.645 51.264h-1.281v4.27h1.281v-4.27zm2.135.426H33.5v4.272h1.28v-4.271zm2.136-.426h-1.281v4.27h1.281v-4.27zm2.136 0H37.77v4.27h1.282v-4.27zm2.135 0h-1.281v4.27h1.281v-4.27zm2.136 0H42.04v4.27h1.282v-4.27zm2.136 0h-1.282v4.27h1.282v-4.27zm2.135 0h-1.282v4.27h1.282v-4.27zm2.136 0h-1.282v4.27h1.282v-4.27z" fill="#fff"/><path d="M49.73 56.816H9.58v2.99h40.15v-2.99z" fill="#EDEDED"/><path fill-rule="evenodd" clip-rule="evenodd" d="M29.655 19.657l23.491 16.23H6.164l23.491-16.23z" fill="#697684"/><path d="M53.146 35.887H6.164v2.136h46.982v-2.136z" fill="#EDEDED"/></g><path d="M46 22c6.075 0 11-4.925 11-11S52.075 0 46 0 35 4.925 35 11s4.925 11 11 11z" fill="#E4002B"/><path fill-rule="evenodd" clip-rule="evenodd" d="M40.852 12.611l3.633 1.695 3.599 1.678a1.006 1.006 0 001.232-1.51l-.638-.86 1.138-2.438a3.547 3.547 0 10-6.429-2.998l-1.137 2.439-1.03.061a1.015 1.015 0 00-.368 1.933zm2.407 1.123c-.318.683-.037 1.488.629 1.798.666.31 1.463.009 1.782-.674" fill="#fff"/><path d="M43.259 13.734c-.318.683-.037 1.488.629 1.798.666.31 1.463.009 1.782-.674m-4.818-2.247l3.633 1.695 3.599 1.678a1.006 1.006 0 001.232-1.51l-.638-.86 1.138-2.438a3.547 3.547 0 10-6.429-2.998l-1.137 2.439-1.03.061a1.015 1.015 0 00-.368 1.933z" stroke="#fff" stroke-linecap="round" stroke-linejoin="round"/><path fill-rule="evenodd" clip-rule="evenodd" d="M38 18l1 6 6-3-7-3z" fill="#E4002B"/></svg>
