<svg width="60" height="60" fill="none" xmlns="http://www.w3.org/2000/svg"><path fill-rule="evenodd" clip-rule="evenodd" d="M30 60C13.431 60 0 46.569 0 30 0 13.431 13.431 0 30 0c16.569 0 30 13.431 30 30 0 16.569-13.431 30-30 30z" fill="#F4F7FC"/><mask id="a" maskUnits="userSpaceOnUse" x="0" y="0" width="60" height="60"><path fill-rule="evenodd" clip-rule="evenodd" d="M30 60C13.43 60 0 46.584 0 30.035 0 21.828.04 0 .04 0S21.646.07 30 .07c9.843 0 30-.015 30-.015l-.002 29.98C59.998 46.585 46.568 60 30 60z" fill="#fff"/></mask><g mask="url(#a)"><path fill-rule="evenodd" clip-rule="evenodd" d="M-2.773 50.58c0-5.96 4.83-10.79 10.79-10.79h16.88c5.958 0 10.788 4.83 10.788 10.79v5.312c0 5.958-4.83 10.788-10.789 10.788H8.016c-5.958 0-10.789-4.83-10.789-10.788v-5.313z" fill="#FDDFC2"/><path fill-rule="evenodd" clip-rule="evenodd" d="M-2.66 55.444l33.434 9.417-4.117 2.417-33.448-1.076 4.131-10.758z" fill="#FDDFC2"/><rect x="14.987" y="1.193" width="31.468" height="52.216" rx="1.124" fill="#fff" stroke="#434343" stroke-width="2.248"/><path fill="#434343" d="M16.024 49.777h29.825v3.458H16.024zm0-48.844h29.825v3.458H16.024z"/><rect x="28.127" y="51.506" width="4.322" height="1.297" rx=".648" fill="#666"/><rect x="28.559" y="1.798" width="4.322" height=".864" rx=".432" fill="#666"/><rect x="33.746" y="1.798" width=".864" height=".864" rx=".432" fill="#666"/><path fill="#fff" d="M16.024 4.391h29.393v45.386H16.024z"/><path fill="#D2D5DA" d="M16.721 16.119h26.965v12.617H16.721z"/><path fill="#fff" d="M33.049 17.603h6.927v4.453h-6.927z"/><path fill="#D2D5DA" d="M33.543 18.098h5.442v3.463h-5.442z"/><path fill="#fff" d="M33.296 19.582h6.679v.495h-6.679z"/><path fill="#fff" d="M33.049 17.851h2.226v3.958h-2.226z"/><path fill="#C6C6C6" d="M33.543 18.098h1.237v.247h-1.237zm0 .742h1.237v.247h-1.237zm0 .742h1.237v.247h-1.237zm0 .743h1.237v.247h-1.237zm0 .742h1.237v.247h-1.237z"/><path fill="#fff" d="M37.749 17.851h2.226v3.958h-2.226z"/><path fill="#C6C6C6" d="M38.244 18.098h1.237v.247h-1.237zm0 .742h1.237v.247h-1.237zm0 .742h1.237v.247h-1.237zm0 .743h1.237v.247h-1.237zm0 .742h1.237v.247h-1.237z"/><path fill="#fff" d="M20.185 17.603h7.669v6.927h-7.669z"/><path fill="#fff" d="M22.411 17.603h3.216v6.927h-3.216z"/><path fill="#D2D5DA" d="M22.906 18.098h.99v.99h-.99zm1.237 0h.99v.99h-.99zm-1.237 1.237h.99v.99h-.99zm1.237 0h.99v.99h-.99zm-1.237 1.237h.99v.99h-.99zm1.237 0h.99v.99h-.99zm-1.237 1.237h.99v.99h-.99zm1.237 0h.99v.99h-.99zm-1.237 1.237h.99v.99h-.99zm1.237 0h.99v.99h-.99zm-3.464-4.948h.99v.99h-.99zm0 1.237h.99v.99h-.99zm0 1.237h.99v.99h-.99zm0 1.237h.99v.99h-.99zm0 1.237h.99v.99h-.99zm5.69-4.948h.99v.99h-.99zm0 1.237h.99v.99h-.99zm0 1.237h.99v.99h-.99zm0 1.237h.99v.99h-.99zm0 1.237h.99v.99h-.99z"/><path fill="#fff" d="M31.317 23.293h10.637v.742H31.317zm0 2.969h10.637v.742H31.317z"/><path fill="#fff" d="M31.317 23.788h.742v2.474h-.742zm1.237.247h.742v2.474h-.742zm1.237-.247h.742v2.474h-.742zm1.237 0h.742v2.474h-.742zm1.237 0h.742v2.474h-.742zm1.237 0h.742v2.474h-.742zm1.237 0h.742v2.474h-.742zm1.236 0h.742v2.474h-.742zm1.237 0h.742v2.474h-.742z"/><path fill="#EDEDED" d="M18.7 27.004h23.254v1.732H18.7z"/><path fill-rule="evenodd" clip-rule="evenodd" d="M30.327 5.482l13.607 9.4H16.72l13.606-9.4z" fill="#697684"/><path fill="#EDEDED" d="M16.721 14.882h27.212v1.237H16.721z"/><path fill-rule="evenodd" clip-rule="evenodd" d="M3.064 48.701a3.998 3.998 0 011.464-5.462l14.428-8.33a3.998 3.998 0 113.998 6.926l-14.428 8.33A3.998 3.998 0 013.064 48.7z" fill="#FFE8D2"/><path fill-rule="evenodd" clip-rule="evenodd" d="M9.969 58.565c3.495-2.017 4.805-6.908 2.787-10.403-2.398-4.154-7.289-5.465-10.784-3.447-4.154 2.398-5.465 7.29-3.066 11.444 2.018 3.495 6.908 4.805 11.063 2.406zM40.23 30.251a3.383 3.383 0 116.766 0v14.985a3.383 3.383 0 016.766 0v1.033a3.383 3.383 0 116.766 0v1.268a2.602 2.602 0 015.205.018v20.896a3.372 3.372 0 01-3.372 3.371h-18.76a3.372 3.372 0 01-3.371-3.371v-38.2z" fill="#FFE8D2"/><path d="M21.64 45.558l1.234-2.147.815 1.05 1.989-3.11 1.762 3.799 1.415-3.256.728 1.204 3.603-5.94 1.324 2.648 2.735-6.202" stroke="#E4002B" stroke-width=".622" stroke-linecap="round" stroke-linejoin="round"/><path fill-rule="evenodd" clip-rule="evenodd" d="M35.357 34.444l2.28-2.232a.208.208 0 01.352.157l-.142 3.179-2.49-1.104z" fill="#E4002B"/></g></svg>
