<svg width="158" height="28" viewBox="0 0 158 28" fill="none" xmlns="http://www.w3.org/2000/svg">
<path d="M15.6631 12.8424C15.6631 12.8424 18.655 8.66785 21.8145 8.66785C22.8649 8.66785 23.5772 9.16555 23.6499 9.85898C23.7225 10.5524 23.3091 11.4639 21.8844 11.3717C20.8871 11.3074 17.4147 10.7286 15.2162 14.7605C15.2162 14.7605 15.0653 12.135 13.6993 10.5971C12.9757 9.78069 13.0512 9.02295 13.7747 8.57558C13.7747 8.57558 14.9899 7.95485 15.367 9.81984C15.5346 10.6587 15.7916 11.97 15.6631 12.8424Z" fill="#5AE2E0"/>
<path d="M14.8336 16.4438C14.8336 16.4438 16.8058 11.8862 22.256 12.6215C23.1751 12.7446 23.7701 13.3709 23.6891 14.2992C23.5942 15.3337 22.4153 15.5686 21.4012 15.2918C17.9707 14.3495 16.5377 14.7801 14.5459 17.73C13.8978 14.0951 11.6071 13.5694 10.8863 12.4678C10.6545 12.1154 10.5176 11.4612 10.9282 11.0697C11.1197 10.8714 11.3776 10.7508 11.6524 10.7312C11.9272 10.7116 12.1996 10.7943 12.4172 10.9635C13.3502 11.682 14.6744 14.7326 14.8336 16.4438Z" fill="#E4002B"/>
<path d="M13.948 20.8085C13.948 20.8085 14.1017 17.1261 9.34704 15.619C8.60396 15.3813 8.14582 14.5005 8.46987 13.8742C8.79392 13.2479 9.64874 13.164 10.4505 13.5666C13.2804 14.9926 14.2302 19.0134 14.2302 19.0134C16.6075 15.4876 20.3145 15.9377 21.9459 16.3683C23.5773 16.7989 23.8735 17.8838 23.5941 18.6248C23.3148 19.3657 22.4013 19.7907 20.7503 18.9491C20.605 18.882 16.1242 16.4606 13.948 20.8085Z" fill="white"/>
<path d="M36.0897 8.38831H38.1597V19.6202H35.9612V11.875L32.8883 16.0999H32.5195L29.3964 11.875V19.6202H27.2146V8.38831H29.2846L32.7207 13.1109L36.0897 8.38831Z" fill="white"/>
<path d="M39.5649 15.4735C39.5649 12.9207 41.3779 11.1536 43.8195 11.1536C46.2611 11.1536 48.1048 12.9207 48.1048 15.4735C48.1048 18.0263 46.289 19.813 43.8195 19.813C41.35 19.813 39.5649 18.0459 39.5649 15.4735ZM45.9901 15.4735C45.9901 13.8993 45.0598 12.999 43.8251 12.999C42.5903 12.999 41.688 13.8993 41.688 15.4735C41.688 17.0477 42.6043 17.99 43.8251 17.99C45.0459 17.99 45.9845 17.0561 45.9845 15.4735H45.9901Z" fill="white"/>
<path d="M53.9516 11.1537V13.371H53.0772C52.1135 13.371 51.4235 14.0616 51.4235 15.2807V19.6202H49.3618V11.3466H51.4318V12.5349C51.6023 12.1226 51.8922 11.7708 52.264 11.5246C52.6359 11.2785 53.0728 11.1493 53.5186 11.1537H53.9516Z" fill="white"/>
<path d="M59.7986 12.999H57.9521V16.6339C57.9521 17.4196 58.2733 17.8223 58.9159 17.8223H59.7986V19.6062H58.6644C56.8989 19.6062 55.8877 18.4877 55.8877 16.729V12.999H54.3792V11.3465H55.8709V9.75555L57.9409 8.61475V11.3465H59.7874L59.7986 12.999Z" fill="white"/>
<path d="M66.3804 11.3467H68.442V18.5438C68.442 21.0966 66.724 22.5758 64.2042 22.5758C63.4246 22.5904 62.6567 22.3839 61.9893 21.9802C61.3219 21.5764 60.7824 20.9919 60.4329 20.2941L61.9722 19.2652C62.4555 20.1488 63.274 20.7611 64.2517 20.7611C65.4082 20.7611 66.3692 20.0705 66.3692 18.6556V17.677C66.118 18.0833 65.7641 18.4159 65.3432 18.6413C64.9223 18.8667 64.4494 18.9767 63.9724 18.9604C61.9331 18.9604 60.4246 17.2828 60.4246 15.0459C60.4246 12.809 61.9331 11.1314 63.9724 11.1314C64.4528 11.1129 64.9294 11.2238 65.3525 11.4525C65.7755 11.6812 66.1296 12.0193 66.3776 12.4316L66.3804 11.3467ZM66.4139 15.0571C66.4139 13.8212 65.6122 12.9852 64.4892 12.9852C63.3662 12.9852 62.5337 13.824 62.5337 15.0571C62.5337 16.2902 63.3382 17.129 64.4892 17.129C65.6401 17.129 66.4139 16.2929 66.4139 15.0571Z" fill="white"/>
<path d="M77.2051 14.4138V19.6201H75.2775V18.8176C74.7803 19.4747 73.931 19.813 72.8388 19.813C70.914 19.813 69.6458 18.8484 69.6458 17.2267C69.6458 15.6664 70.9615 14.6543 72.984 14.6543C73.7709 14.6092 74.545 14.8685 75.1462 15.3784V14.6235C75.1462 13.5051 74.5037 12.999 73.4282 12.999C73.0178 12.9829 72.6137 13.1038 72.2794 13.3427C71.9451 13.5816 71.6997 13.925 71.5817 14.3187L69.8636 13.5945C70.4224 11.8442 71.8722 11.1536 73.5092 11.1536C75.4871 11.1536 77.2051 12.1825 77.2051 14.4138ZM75.1826 17.2099C75.1826 16.5025 74.4926 16.0915 73.4813 16.0915C72.47 16.0915 71.794 16.4969 71.794 17.2099C71.794 17.9229 72.484 18.3032 73.4953 18.3032C74.5065 18.3032 75.1826 17.9173 75.1826 17.2099Z" fill="white"/>
<path d="M84.3369 11.3467H86.407V18.5438C86.407 21.0966 84.6889 22.5757 82.1692 22.5757C81.3896 22.5901 80.6218 22.3835 79.9545 21.9797C79.2872 21.576 78.7476 20.9917 78.3979 20.2941L79.9371 19.2652C80.4204 20.1487 81.2389 20.7611 82.2166 20.7611C83.3732 20.7611 84.3369 20.0704 84.3369 18.6556V17.677C84.0844 18.0845 83.7286 18.418 83.3057 18.6434C82.8827 18.8688 82.4077 18.9782 81.9289 18.9604C79.8896 18.9604 78.3811 17.2827 78.3811 15.0459C78.3811 12.809 79.8896 11.1314 81.9289 11.1314C82.4097 11.113 82.8867 11.2239 83.3102 11.4525C83.7337 11.6812 84.0882 12.0193 84.3369 12.4315V11.3467ZM84.3649 15.0571C84.3649 13.8212 83.5631 12.9852 82.4401 12.9852C81.3171 12.9852 80.4846 13.824 80.4846 15.0571C80.4846 16.2901 81.2864 17.129 82.4401 17.129C83.5939 17.129 84.3649 16.2929 84.3649 15.0571Z" fill="white"/>
<path d="M95.5782 15.9378H89.7509C89.8794 17.4001 90.6504 18.0432 91.7063 18.0432C92.6841 18.0432 93.3825 17.5931 93.8238 16.469L95.5754 17.1093C94.9329 18.9743 93.4719 19.8104 91.7874 19.8104C89.3458 19.8104 87.6445 18.074 87.6445 15.4708C87.6445 12.8677 89.3207 11.1509 91.6896 11.1509C93.9859 11.1509 95.6005 12.8845 95.6005 15.4568C95.5922 15.6022 95.5922 15.7952 95.5782 15.9378ZM89.8151 14.5397H93.4914C93.2651 13.3682 92.6087 12.8369 91.6924 12.8369C90.6811 12.8229 90.0386 13.385 89.8151 14.5397Z" fill="white"/>
<path d="M99.6594 13.9973C99.6594 10.5413 102.003 8.1814 105.294 8.1814C107.719 8.1814 109.596 9.4648 110.322 11.7632L108.317 12.5013C107.817 11.0725 106.741 10.189 105.297 10.189C103.361 10.189 101.964 11.6178 101.964 13.9973C101.964 16.3767 103.361 17.8027 105.302 17.8027C106.747 17.8027 107.817 16.922 108.322 15.4904L110.32 16.2173C109.596 18.5157 107.719 19.8019 105.291 19.8019C102.003 19.8131 99.6594 17.4504 99.6594 13.9973Z" fill="white"/>
<path d="M118.608 14.2853V19.6202H116.538V14.6404C116.538 13.5639 115.927 12.9627 115.094 12.9627C114.114 12.9627 113.418 13.6226 113.418 14.7634V19.6202H111.348V8.38831H113.418V12.4231C113.637 12.0196 113.966 11.6864 114.366 11.4618C114.767 11.2372 115.222 11.1304 115.681 11.1536C117.357 11.1536 118.608 12.3895 118.608 14.2853Z" fill="white"/>
<path d="M119.784 15.4735C119.784 12.9207 121.597 11.1536 124.039 11.1536C126.48 11.1536 128.324 12.9207 128.324 15.4735C128.324 18.0263 126.508 19.813 124.033 19.813C121.558 19.813 119.784 18.0459 119.784 15.4735ZM126.209 15.4735C126.209 13.8993 125.279 12.999 124.044 12.999C122.81 12.999 121.907 13.8993 121.907 15.4735C121.907 17.0477 122.824 17.99 124.044 17.99C125.265 17.99 126.204 17.0561 126.204 15.4735H126.209Z" fill="white"/>
<path d="M129.291 9.16003C129.313 8.82123 129.463 8.50348 129.71 8.2713C129.958 8.03912 130.284 7.90991 130.623 7.90991C130.962 7.90991 131.289 8.03912 131.536 8.2713C131.784 8.50348 131.934 8.82123 131.956 9.16003C131.956 9.94853 131.364 10.3987 130.623 10.3987C129.883 10.3987 129.291 9.94853 129.291 9.16003ZM131.651 11.3466V19.6202H129.581V11.3466H131.651Z" fill="white"/>
<path d="M132.905 15.4735C132.905 12.8871 134.704 11.1536 137.045 11.1536C138.875 11.1536 140.448 12.0679 140.995 14.0923L139.166 14.7521C138.763 13.4827 138.09 12.985 137.045 12.985C136.001 12.985 135.04 13.8043 135.04 15.4735C135.04 17.1428 136.003 17.9648 137.045 17.9648C138.087 17.9648 138.763 17.4839 139.166 16.2145L140.995 16.8716C140.437 18.8959 138.875 19.813 137.045 19.813C134.704 19.813 132.905 18.0599 132.905 15.4735Z" fill="white"/>
<path d="M149.619 15.9378H143.792C143.921 17.4001 144.692 18.0432 145.747 18.0432C146.728 18.0432 147.424 17.5931 147.868 16.469L149.617 17.1093C148.974 18.9743 147.513 19.8104 145.829 19.8104C143.39 19.8104 141.688 18.074 141.688 15.4708C141.688 12.8677 143.365 11.1509 145.734 11.1509C148.027 11.1509 149.644 12.8845 149.644 15.4568C149.644 15.6175 149.636 15.778 149.619 15.9378ZM143.867 14.5397H147.544C147.32 13.3682 146.661 12.8369 145.747 12.8369C144.725 12.8229 144.083 13.385 143.867 14.5397Z" fill="white"/>
</svg>
